<svg width="21" height="21" viewBox="0 0 21 21" fill="none" xmlns="http://www.w3.org/2000/svg">
<g clip-path="url(#clip0_63_32873)">
<g clip-path="url(#clip1_63_32873)">
<g clip-path="url(#clip2_63_32873)">
<path fill-rule="evenodd" clip-rule="evenodd" d="M20.755 10.7385C20.755 9.994 20.6882 9.27809 20.5641 8.59082H10.675V12.6524H16.3259C16.0825 13.9649 15.3427 15.077 14.2307 15.8215V18.456H17.6241C19.6095 16.6281 20.755 13.9363 20.755 10.7385Z" fill="#4285F4"/>
<path fill-rule="evenodd" clip-rule="evenodd" d="M10.675 21.0001C13.51 21.0001 15.8868 20.0599 17.6241 18.4563L14.2307 15.8217C13.2904 16.4517 12.0877 16.824 10.675 16.824C7.94022 16.824 5.62545 14.9769 4.79976 12.4951H1.29181V15.2156C3.01954 18.6472 6.57045 21.0001 10.675 21.0001Z" fill="#34A853"/>
<path fill-rule="evenodd" clip-rule="evenodd" d="M4.79976 12.4949C4.58976 11.8649 4.47044 11.1919 4.47044 10.4999C4.47044 9.80783 4.58976 9.13488 4.79976 8.50488V5.78442H1.29181C0.58067 7.20192 0.174988 8.80556 0.174988 10.4999C0.174988 12.1942 0.58067 13.7978 1.29181 15.2153L4.79976 12.4949Z" fill="#FBBC05"/>
<path fill-rule="evenodd" clip-rule="evenodd" d="M10.675 4.17614C12.2166 4.17614 13.6007 4.70591 14.6889 5.74636L17.7004 2.73477C15.882 1.04045 13.5052 0 10.675 0C6.57045 0 3.01954 2.35295 1.29181 5.78455L4.79976 8.505C5.62545 6.02318 7.94022 4.17614 10.675 4.17614Z" fill="#EA4335"/>
</g>
</g>
</g>
<defs>
<clipPath id="clip0_63_32873">
<rect width="21" height="21" fill="white"/>
</clipPath>
<clipPath id="clip1_63_32873">
<rect width="21" height="21" fill="white"/>
</clipPath>
<clipPath id="clip2_63_32873">
<rect width="20.65" height="21" fill="white" transform="translate(0.174988)"/>
</clipPath>
</defs>
</svg>
